<svg width="16" height="16" viewBox="0 0 16 16" fill="none" xmlns="http://www.w3.org/2000/svg">
<path d="M4.78251 1.21549L3.76563 0L0.111206 3.05859L1.13603 4.27408L4.78251 1.21549ZM16 3.06653L12.3456 0L11.3207 1.21549L14.9752 4.28203L16 3.06653ZM8.0556 1.7001C4.10723 1.7001 0.905645 4.90169 0.905645 8.85005C0.905645 12.7984 4.09929 16 8.0556 16C12.004 16 15.2055 12.7984 15.2055 8.85005C15.2055 4.90169 12.004 1.7001 8.0556 1.7001ZM8.0556 14.4111C4.98112 14.4111 2.49452 11.9245 2.49452 8.85005C2.49452 5.77557 4.98112 3.28898 8.0556 3.28898C11.1301 3.28898 13.6167 5.77557 13.6167 8.85005C13.6167 11.9245 11.1301 14.4111 8.0556 14.4111ZM8.85003 5.67229H7.26116V8.05561H4.87784V9.64449H7.26116V12.0278H8.85003V9.64449H11.2334V8.05561H8.85003V5.67229Z" fill="white"/>
</svg>
