<svg width="18" height="17" viewBox="0 0 18 17" fill="none" xmlns="http://www.w3.org/2000/svg">
<path d="M15.6073 14.0802L17.2907 11.1703C17.3989 10.99 17.3508 10.7615 17.1945 10.6293L15.415 9.23447C15.451 8.96994 15.4751 8.69339 15.4751 8.41683C15.4751 8.14028 15.451 7.86373 15.415 7.58718L17.1945 6.19239C17.3508 6.06012 17.3989 5.83166 17.2907 5.6513L15.6073 2.74148C15.4991 2.56112 15.2827 2.48898 15.0903 2.56112L12.9981 3.40281C12.5653 3.06613 12.0963 2.78958 11.5793 2.57315L11.2667 0.348697C11.2306 0.156313 11.0502 0 10.8458 0H7.47908C7.27467 0 7.09431 0.156313 7.05824 0.360721L6.74562 2.58517C6.24061 2.8016 5.75964 3.07816 5.32678 3.41483L3.23459 2.57315C3.04221 2.501 2.82578 2.57315 2.71756 2.75351L1.03419 5.66333C0.925977 5.84369 0.974073 6.07214 1.13039 6.20441L2.90994 7.5992C2.87387 7.86373 2.84982 8.14028 2.84982 8.41683C2.84982 8.69339 2.87387 8.96994 2.90994 9.24649L1.13039 10.6413C0.974073 10.7735 0.925977 11.002 1.03419 11.1824L2.71756 14.0922C2.82578 14.2725 3.04221 14.3447 3.23459 14.2725L5.32678 13.4309C5.75964 13.7675 6.22858 14.0441 6.74562 14.2605L7.05824 16.485C7.09431 16.6774 7.27467 16.8337 7.47908 16.8337H10.8458C11.0502 16.8337 11.2306 16.6774 11.2667 16.4729L11.5793 14.2485C12.0843 14.0321 12.5653 13.7555 12.9981 13.4188L15.0903 14.2605C15.2827 14.3327 15.4991 14.2605 15.6073 14.0802ZM9.16245 10.8216C7.83981 10.8216 6.75764 9.73948 6.75764 8.41683C6.75764 7.09419 7.83981 6.01202 9.16245 6.01202C10.4851 6.01202 11.5673 7.09419 11.5673 8.41683C11.5673 9.73948 10.4851 10.8216 9.16245 10.8216Z" fill="black"/>
</svg>
