<svg xmlns="http://www.w3.org/2000/svg" width="139" height="56" viewBox="0 0 139 56" fill="none">
	<path fill-rule="evenodd" clip-rule="evenodd" d="M0 51.0435H10.5455L14.4957 38.9008C13.8904 38.6112 13.3479 38.4232 12.7512 38.2373C11.6081 37.8811 10.5657 37.5544 10.5878 37.2545C11.1942 36.671 11.7479 36.1208 12.2656 35.6064C13.9756 33.907 15.2915 32.5993 16.8122 31.7801L22.2273 15.1344L28.1447 32.8084C29.4587 33.8026 30.3466 35.2635 31.2282 36.7141C31.8617 37.7564 32.492 38.7934 33.2748 39.6482C33.5532 39.9555 34.1821 40.3259 34.8456 40.7165C35.8602 41.314 36.9554 41.9589 37 42.4981C36.4214 42.3254 35.9883 41.9603 35.5524 41.5929C35.2773 41.3611 35.0012 41.1284 34.6867 40.9425C33.2552 40.1271 32.2388 40.3258 30.8527 40.8965L34.25 51.0435H44.7955L28.75 4.49808H16.0682L0 51.0435Z" fill="white"/>
	<path fill-rule="evenodd" clip-rule="evenodd" d="M34.8267 40.7055L34.8455 40.7165ZM26.7174 31.9961L26.6414 31.9623C26.7691 32.0188 26.8988 32.0775 27.0307 32.1382C26.9249 32.0895 26.8205 32.0421 26.7174 31.9961ZM13.0155 36.2714C12.7716 36.5138 12.5177 36.7663 12.251 37.0293C12.4909 37.1085 12.7592 37.1924 13.0486 37.2826C14.2697 37.6631 15.307 38.0662 16.9709 39.2028C18.469 40.2262 19.5771 40.8065 21.4026 41.3214C23.307 41.8585 24.6336 41.9086 25.8296 41.6945C27.064 41.4734 28.2197 40.9646 29.836 40.2446L29.8612 40.2333L29.8658 40.2313C30.5285 39.94 31.1896 39.6602 31.8658 39.5108C31.2984 38.7582 30.7953 37.9302 30.3242 37.1548L30.3242 37.1548C30.0976 36.7819 29.8785 36.4213 29.6631 36.087C28.7807 34.7173 27.8873 33.6344 26.6123 33.0465L12.251 37.0293L26.612 33.0463C25.1403 32.3685 24.0045 31.9878 22.9254 31.8218C21.8541 31.657 20.7845 31.6955 19.4368 31.9242C17.9851 32.1705 16.8701 32.783 15.6579 33.784C14.8295 34.468 14.0061 35.2866 13.0155 36.2714Z" fill="white"/>
	<path d="M70.3863 41.9526L71.5454 32.4526L75.75 37.8617L79.8863 42.6799L87.6818 52.4526C87.6818 52.4526 84.2556 56.1345 78.5 52.4526C72.7443 48.7708 70.3863 41.9526 70.3863 41.9526ZM88.3863 25.3617C88.3863 30.4375 87.4242 34.7557 85.5 38.3163C83.5909 41.8769 80.9848 44.5966 77.6818 46.4754C74.3939 48.339 70.6969 49.2708 66.5909 49.2708C62.4545 49.2708 58.7424 48.3314 55.4545 46.4526C52.1666 44.5738 49.5681 41.8542 47.659 38.2935C45.75 34.7329 44.7954 30.4223 44.7954 25.3617C44.7954 20.286 45.75 15.9678 47.659 12.4072C49.5681 8.84658 52.1666 6.13446 55.4545 4.27082C58.7424 2.39203 62.4545 1.45264 66.5909 1.45264C70.6969 1.45264 74.3939 2.39203 77.6818 4.27082C80.9848 6.13446 83.5909 8.84658 85.5 12.4072C87.4242 15.9678 88.3863 20.286 88.3863 25.3617Z" fill="white"/>
	<path fill-rule="evenodd" clip-rule="evenodd" d="M118.042 3.44164C115.467 3.33232 110.262 0.817212 100.254 16.9388C100.254 16.9388 99.6926 18.3667 97.1343 20.8667C94.576 23.3667 94.203 25.8922 94.203 25.8922C94.203 25.8922 96.7175 24.5297 97.1343 25.4482C97.551 26.3667 97.1343 35 100.936 46.7172L98.8749 53.8365C98.8637 53.936 98.8778 54.0165 98.9155 54.1167C99.0504 54.4757 99.402 54.658 99.6926 54.5489C99.7918 54.5116 99.8714 54.4435 99.9314 54.3448L104.632 50.0236L110.825 51.1533C110.928 51.1908 111.04 51.1869 111.139 51.1496C110.825 51.1533 111.574 50.6716 111.439 50.3126C111.402 50.2124 111.359 50.1426 111.3 50.0697L105.87 44.8635C102.431 37.6503 102.934 30.2161 104.632 26.5C104.87 25.9805 105.567 27.4407 105.87 27C105.87 27 106.149 24.8828 106.545 24.5C108.002 23.0918 109.276 23.3466 111.286 23.3466C117.94 23.3466 127.129 12.1534 126.29 9.43563C125.451 6.7179 119.229 3.49203 118.042 3.44164Z" fill="white"/>
</svg>