<svg width="15" height="15" viewBox="0 0 15 15" fill="none" xmlns="http://www.w3.org/2000/svg">
<path d="M8.90585 13.0751H7.48092V13.9656C7.48092 14.12 7.43057 14.2478 7.32987 14.349C7.2287 14.4497 7.10093 14.5 6.94657 14.5C6.7922 14.5 6.66467 14.4497 6.56397 14.349C6.4628 14.2478 6.41221 14.12 6.41221 13.9656V10.7595C6.41221 10.6052 6.4628 10.4774 6.56397 10.3762C6.66467 10.2755 6.7922 10.2252 6.94657 10.2252H8.90585C9.19084 10.2252 9.4402 10.3321 9.65394 10.5458C9.86769 10.7595 9.97456 11.0089 9.97456 11.2939V12.0064C9.97456 12.2913 9.86769 12.5407 9.65394 12.7545C9.4402 12.9682 9.19084 13.0751 8.90585 13.0751ZM11.7557 12.7188V13.9656C11.7557 14.12 11.7054 14.2478 11.6047 14.349C11.5035 14.4497 11.3757 14.5 11.2214 14.5C11.067 14.5 10.9392 14.4497 10.8381 14.349C10.7374 14.2478 10.687 14.12 10.687 13.9656V10.7595C10.687 10.6052 10.7374 10.4774 10.8381 10.3762C10.9392 10.2755 11.067 10.2252 11.2214 10.2252C11.3757 10.2252 11.5035 10.2755 11.6047 10.3762C11.7054 10.4774 11.7557 10.6052 11.7557 10.7595V11.6501H13.1807V10.7595C13.1807 10.6052 13.231 10.4774 13.3317 10.3762C13.4329 10.2755 13.5606 10.2252 13.715 10.2252C13.8694 10.2252 13.9972 10.2755 14.0983 10.3762C14.199 10.4774 14.2494 10.6052 14.2494 10.7595V13.9656C14.2494 14.12 14.199 14.2478 14.0983 14.349C13.9972 14.4497 13.8694 14.5 13.715 14.5C13.5606 14.5 13.4329 14.4497 13.3317 14.349C13.231 14.2478 13.1807 14.12 13.1807 13.9656V12.7188H11.7557ZM7.48092 12.0064H8.90585V11.2939H7.48092V12.0064ZM4.98728 14.4644C3.53859 14.2981 2.34521 13.6747 1.40712 12.5941C0.469041 11.5136 0 10.2014 0 8.65776C0 7.8978 0.17218 7.14068 0.516539 6.38641C0.860899 5.63262 1.29432 4.91137 1.81679 4.22265C2.33927 3.53393 2.9064 2.88677 3.51817 2.28117C4.12947 1.67557 4.69635 1.14122 5.21883 0.678117C5.29008 0.618745 5.36417 0.574097 5.44112 0.544173C5.51854 0.514724 5.60475 0.5 5.69975 0.5C5.79474 0.5 5.88095 0.514724 5.95837 0.544173C6.03532 0.574097 6.10942 0.618745 6.18066 0.678117C6.71501 1.1531 7.28499 1.6903 7.89059 2.28972C8.49618 2.88962 9.06022 3.53393 9.5827 4.22265C10.1052 4.91137 10.5386 5.62977 10.883 6.37786C11.2273 7.12595 11.3995 7.88592 11.3995 8.65776V8.80025H6.41221C6.02036 8.80025 5.68502 8.93966 5.40621 9.21847C5.12692 9.49776 4.98728 9.83333 4.98728 10.2252V14.4644Z" fill="#363636"/>
</svg>
