<svg width="22" height="24" viewBox="0 0 22 24" fill="none" xmlns="http://www.w3.org/2000/svg">
<path d="M6.85151 24C6.29036 24 5.79935 23.8297 5.37849 23.489C4.95763 23.1483 4.67706 22.7074 4.53677 22.1663L3.18401 16.7852H18.816L17.4632 22.1663C17.3229 22.7074 17.0424 23.1483 16.6215 23.489C16.2006 23.8297 15.7096 24 15.1485 24H6.85151ZM4.68708 0.0109315C6.47073 0.231382 7.96899 1.01779 9.18187 2.37016C10.394 3.72333 11 5.32179 11 7.16557C11 5.32179 11.606 3.72333 12.8181 2.37016C14.031 1.01779 15.5293 0.231382 17.3129 0.0109315C17.5534 -0.0291505 17.7638 0.0409929 17.9442 0.221362C18.1246 0.401731 18.1947 0.612161 18.1546 0.852653C17.9542 2.43589 17.3029 3.79347 16.2006 4.92538C15.0984 6.0581 13.7656 6.76475 12.2025 7.04532V9.57049H20.6197C20.9604 9.57049 21.2458 9.68552 21.4758 9.91559C21.7067 10.1465 21.8221 10.4322 21.8221 10.7729V13.1779C21.8221 13.8392 21.5868 14.4052 21.1163 14.8757C20.6449 15.3471 20.0786 15.5828 19.4172 15.5828H2.58278C1.92142 15.5828 1.35506 15.3471 0.8837 14.8757C0.413138 14.4052 0.177856 13.8392 0.177856 13.1779V10.7729C0.177856 10.4322 0.293293 10.1465 0.524165 9.91559C0.754236 9.68552 1.03962 9.57049 1.38032 9.57049H9.79753V7.04532C8.23434 6.76475 6.90161 6.0581 5.79936 4.92538C4.6971 3.79347 4.04577 2.43589 3.84536 0.852653C3.80528 0.612161 3.87542 0.401731 4.05579 0.221362C4.23616 0.0409929 4.44659 -0.0291505 4.68708 0.0109315Z" fill="white"/>
</svg>
