<svg width="88" height="64" viewBox="0 0 88 64" fill="none" xmlns="http://www.w3.org/2000/svg">
<path d="M44 42.9C46.8 42.9 49.1667 41.95 51.1 40.05C53.0333 38.15 54 35.8 54 33C54 31.6667 53.75 30.4167 53.25 29.25C52.75 28.0833 52.0333 27.0333 51.1 26.1L46.8 21.9C46 21.1667 45.0667 20.8 44 20.8C42.9333 20.8 42 21.1667 41.2 21.9L36.9 26.1C35.9667 27.0333 35.25 28.0833 34.75 29.25C34.25 30.4167 34 31.6667 34 33C34 35.8 34.9667 38.15 36.9 40.05C38.8333 41.95 41.2 42.9 44 42.9ZM44 57C37.0667 57 31.1667 54.5667 26.3 49.7C21.4333 44.8333 19 38.9333 19 32C19 25.0667 21.4333 19.1667 26.3 14.3C31.1667 9.43333 37.0667 7 44 7C50.9333 7 56.8333 9.43333 61.7 14.3C66.5667 19.1667 69 25.0667 69 32C69 38.9333 66.5667 44.8333 61.7 49.7C56.8333 54.5667 50.9333 57 44 57ZM80 28H74.7C74.0333 22.8 72.1667 18.0667 69.1 13.8C66.0333 9.53333 62.1 6.26667 57.3 4H80C80 2.86667 80.3833 1.91667 81.15 1.15C81.9167 0.383333 82.8667 0 84 0C85.1333 0 86.0833 0.383333 86.85 1.15C87.6167 1.91667 88 2.86667 88 4V28C88 29.1333 87.6167 30.0833 86.85 30.85C86.0833 31.6167 85.1333 32 84 32C82.9333 32 82.1833 31.5167 81.75 30.55C81.3167 29.5833 80.7333 28.7333 80 28ZM0 60V36C0 34.8667 0.383333 33.9167 1.15 33.15C1.91667 32.3833 2.86667 32 4 32C5.13333 32 6.08333 32.3833 6.85 33.15C7.61667 33.9167 8 34.8667 8 36H13.3C13.9667 41.2 15.8333 45.9333 18.9 50.2C21.9667 54.4667 25.9 57.7333 30.7 60H8C8 61.1333 7.61667 62.0833 6.85 62.85C6.08333 63.6167 5.13333 64 4 64C2.86667 64 1.91667 63.6167 1.15 62.85C0.383333 62.0833 0 61.1333 0 60Z" fill="black"/>
</svg>
